<svg version="1" xmlns="http://www.w3.org/2000/svg" width="3333.333" height="3333.333" viewBox="0 0 2500.000000 2500.000000"><path d="M1330.7 36.6c-.1.1-6.9.4-15.2.8-8.2.3-16.1.8-17.5 1-1.4.3-5.9.7-10 1-4.1.3-8.6.8-10 1-2.3.4-5.8.9-16 2.2-1.9.3-4.4.7-5.6.9-1.2.3-3.9.7-6 1.1-21.2 3.1-64.5 14.7-81.3 21.6-1.4.6-3 1.2-3.6 1.4-8.4 2.4-39.7 18-54 26.9-10.4 6.5-25.8 17.6-25.2 18.2.2.1 5-1.1 10.8-2.8 23.5-6.9 48.1-12.4 70.4-15.8 12.8-1.9 15.9-2.3 34-4 5-.5 20.5-.7 34.5-.6 23.7.4 29 .6 37.3 1.9 1.8.2 5.5.8 8.2 1.1 7.2 1 15.3 2.5 26.5 5 24.3 5.5 59.8 20 78.6 32 3 1.9 5.9 3.5 6.4 3.5.6 0 1 .4 1 1 0 .5.5 1 1 1 3.5 0 39.3 29 50 40.6 4.6 4.9 13 15.6 13 16.6 0 .2-3.3-.3-7.2-1.2-4-1-12.2-2.7-18.3-4l-15.5-3.1c-5.1-1-9-1.7-14-2.5-1.9-.3-4.2-.7-5-.9-.8-.3-3.3-.7-5.5-1-5.6-.9-16.3-2.6-24.5-3.9-1.4-.2-5.1-.7-8.4-1.1-3.2-.4-6.8-.8-8-1-2-.4-5.6-.8-16.1-2-2.7-.3-6.9-.7-9.2-1-2.3-.3-6.8-.8-10-1-3.2-.3-8-.7-10.8-1-4.4-.4-8.6-.7-25.5-2-29.8-2.2-97.5-2.2-124 0-2.5.2-8.8.6-14 1-5.2.4-10.8.8-12.5.9-1.6.2-6.8.7-11.5 1.1-4.7.4-9.3.9-10.2 1-.9.2-4.4.6-7.7 1-3.3.3-6.8.7-7.8.9-1 .2-4.5.7-7.8 1.1-3.2.4-6.6.8-7.5 1-.8.1-3.7.6-6.3.9-2.7.4-5.7.9-6.6 1.1-1 .2-4.2.6-7.2 1s-5.7.9-6 1.1c-.4.2-2.4.6-4.5.9-7.4 1.1-15.6 2.7-31.1 6-6.1 1.4-12.2 2.6-13.5 2.9-1.3.2-4.1.9-6.3 1.4-2.2.6-5.1 1.3-6.5 1.6-2.7.5-24.9 6.3-36.5 9.5-33.9 9.3-89.2 29.3-121.5 43.8-3.6 1.6-8.5 3.8-11 4.9-7.3 3.1-51.8 25.3-55.8 27.8-2 1.2-8.9 5.4-15.2 9.1-31.2 18.6-70 47.7-99.5 74.6-10.9 9.9-38.1 37.3-48 48.4-5 5.5-9.2 10.2-9.5 10.5-.3.3-2.8 3.2-5.5 6.5-2.8 3.3-5.2 6.2-5.5 6.5-1.6 1.5-14.1 17.3-23.6 30-19.2 25.5-40.3 57.9-56.9 87.5-8 14.3-25.5 49.3-30.9 62-6 13.8-12.6 29.9-12.6 30.5 0 .3 2.3-3.1 5.2-7.5 13.2-20.6 31.4-41.6 52.4-60.5 6.6-5.8 27.8-21.5 36.1-26.5 4.3-2.7 9.8-6.1 12.3-7.7 6.9-4.5 37-19 51.2-24.7 13.5-5.4 41.4-14.9 53.8-18.2 4.1-1.1 8.2-2.2 9-2.4 5.4-1.5 29.9-7.5 32-7.9 1.4-.3 9.3-1.8 17.5-3.5 8.3-1.6 16.4-3.2 18-3.4 23.5-3.8 27.1-4.4 34-5.2 2.8-.3 6.4-.8 8-1 1.7-.3 6.2-.7 10-1 3.9-.3 8.6-.8 10.5-1 16.4-2.1 59.5-3.8 94-3.8 24-.1 59.7.8 72.5 1.8 2.8.2 9.3.6 14.5.9 8.9.6 15.3 1.1 27.5 2.1 7.9.7 26.7 2.5 30.5 3 1.9.2 6.2.7 9.5 1 3.3.3 7.4.8 9 1 1.7.2 5.3.7 8 1 2.8.3 6.1.8 7.5 1 1.4.2 4.5.6 7 .9 4.6.5 10.3 1.3 15.5 2.1 1.7.3 4.8.7 7 1 2.2.3 5.5.8 7.3 1.1 1.7.3 4.9.7 7 .9 2 .3 5.7.9 8.2 1.5 2.5.5 6.3 1.2 8.5 1.5 3.7.5 5.3.7 12.5 1.9 1.4.2 3.6.7 5 1 1.4.3 4.1.8 6 1.1 1.9.2 4.6.7 6 1 1.4.3 3.9.8 5.5 1 1.7.3 3.7.8 4.5 1 .8.2 3.1.7 5 1 3.1.5 20.9 4 25 5 .8.2 6.9 1.5 13.5 2.9s19.7 4.4 29 6.6c9.4 2.2 18.1 4.3 19.5 4.6 1.4.3 11.7 3 23 6s21.2 5.7 22 5.9c8.1 2 24.1 6.7 61 18 23.6 7.2 79 26.8 93.5 33 1.7.7 6.2 2.5 10 4 3.9 1.5 8.4 3.3 10 4 1.7.7 4.6 1.9 6.5 2.8 1.9.8 8.1 3.4 13.8 5.7 9.3 3.9 10.7 4.9 10.3 7.3-.1.4-.4 2.7-.7 5-.5 4.3-4 26.8-4.9 32.2-.3 1.6-1 5.7-1.6 8.9-3.5 19.7-11.8 60-16 77.6-1.2 4.7-2.3 9.6-2.6 11-1.8 10.1-19.1 75.9-25.8 98.5-13.5 45.4-23.4 76.7-34.3 108-8.1 23.2-21.4 60-24.2 66.5-1 2.5-5.5 13.7-9.9 25-7.3 18.7-23 56.4-28.3 67.8-1.1 2.6-4.6 10.3-7.8 17.2-9.4 20.8-14.1 30.6-23 48.5l-8.5 17-10-.2c-11.6-.2-35.7-1.2-41.2-1.7-2.1-.3-7.2-.7-11.3-1.1-12.4-1-17.3-1.5-21-2-3.3-.4-7.4-1-16.5-2.1-5.6-.7-18.5-2.4-21.5-3-4-.6-27.1-4.4-31-5-3.3-.5-51.2-10-55.5-11-1.1-.2-3.3-.7-5-1-1.6-.3-5.6-1.2-8.8-2-3.2-.8-7.9-1.9-10.5-2.5-8.2-1.7-9.4-1.9-23.7-5.5-7.7-2-14.9-3.7-16.1-4-2.8-.5-31.9-8.1-36.4-9.4-5.8-1.7-42.4-12.1-44-12.4-7.8-1.8-70.4-22-92.5-29.8-30.7-10.8-74.1-27.3-85-32.2-1.6-.8-6.8-3-11.5-4.9-7.5-3.1-11-4.6-23.5-10.2-25.3-11.3-56.7-27.2-77.5-39.3-5.2-3-9.9-5.7-10.5-6-.5-.2 1.5 2 4.6 4.9 7.5 7.2 25.6 23.9 28.3 26.2 1.1 1 3.6 3.2 5.4 4.9 3.6 3.3 15.9 13.9 20.6 17.9 1.6 1.3 3.4 2.9 4 3.5 1.6 1.5 26.5 22.2 31.1 25.9 2.1 1.6 4.3 3.5 4.9 4 1.5 1.5 29.1 22.7 41.1 31.6 5.5 4.1 10.4 7.8 11 8.2 3.6 2.9 33.6 23.8 46.5 32.3 8.5 5.7 16 10.7 16.6 11.1.5.4 2.1 1.5 3.5 2.3 1.3.8 10.1 6.2 19.4 12.1 35.2 22 63.6 37.8 107.5 59.7 15.1 7.5 30 14.8 33 16.1 3 1.4 8.7 3.9 12.5 5.7 42.2 19.5 106.7 43.3 158.5 58.4 9.6 2.9 18.1 5.4 18.8 5.6 1 .3.9 1-.6 3.1-19.5 28.4-44.8 62.3-46.4 62.3-1 0-27.7-7.5-31.8-9-1.4-.5-7.9-2.5-14.5-4.5-16.2-4.9-48.2-15.6-63.5-21.2-6.9-2.5-15.9-5.8-20-7.3-9.5-3.5-44.9-17.6-51.5-20.5-2.7-1.2-9.5-4.2-15-6.5-37.3-15.9-89.7-42.1-129.5-64.8-6.3-3.6-12.4-7-13.5-7.6-1.1-.6-3.1-1.8-4.5-2.7-1.4-.9-10.8-6.7-21-12.9-21.6-13.2-51.1-32.8-68.8-45.5-8.4-6.1-24.9-18.1-26.2-19.2-.8-.6-6.6-5-12.8-9.8-6.2-4.7-12-9.2-13-10-.9-.8-4.4-3.6-7.7-6.2-3.3-2.7-7.1-5.8-8.5-7-1.4-1.2-5.9-5-10-8.4-8.7-7.2-20.3-17.1-21-18-.3-.3-3-2.7-6-5.4-34.3-29.9-105.3-102.8-104.2-106.9 1.6-5.4 14.1-28.2 21-38.1 4.7-6.8 10.4-14.7 11.7-16.2.5-.7 1.5-1.8 2-2.5 11.7-15.2 31.8-35.8 53-54.3 58.8-51.3 149.3-102.8 258.5-147 11.3-4.6 26.8-10.7 34.5-13.5 7.7-2.9 16.7-6.2 20-7.5 8.2-3.2 56.7-19.4 74.5-24.9 33.3-10.3 89.6-25.8 106.3-29.1 1-.2 2.6-.6 3.5-.9.9-.3 2.9-.7 4.5-1 1.5-.3 3.5-.7 4.5-1 .9-.3 2.8-.7 4.2-1 1.4-.3 10.2-2.1 19.5-4.1 9.4-2 17.7-3.8 18.5-4 1.3-.2 11.1-1.9 23.5-4 1.7-.3 4.1-.7 5.5-1 1.4-.3 4.8-.7 7.5-1.1 2.8-.3 5.9-.8 7-1 4.2-.9 12.9-2.1 21-2.9 3.3-.3 6.9-.8 8-1 3.5-.7 24.1-2.1 37.5-2.5l5.5-.2-7.5-2.5c-8.1-2.7-31.4-9.7-39.5-11.9-26.5-7-63.9-16.2-78-19-1.1-.2-3.1-.6-4.5-.9-1.4-.3-3.6-.7-5-1-1.4-.3-3.6-.7-5-1-4-.9-6.9-1.4-16-3-4.7-.8-9.6-1.7-11-2-2.9-.6-24.6-4.1-30.5-5-2.2-.3-7.1-1-11-1.6-3.8-.5-8.1-1.1-9.5-1.4-1.4-.2-5.4-.7-9-1.1-3.6-.4-7.4-.8-8.5-.9-3.6-.5-11.9-1.4-17.5-2-15.4-1.6-16.5-1.7-34.5-3-4.4-.4-10-.8-12.5-1-29.3-2.6-114.2-2.5-146.5.1-2.7.2-8.1.6-12 .9-9.7.7-18.3 1.5-22.5 2-5.6.7-23.3 2.7-26 3-6.7.8-13.3 1.7-21 3-4.7.8-10.3 1.7-12.5 2-4 .5-6.3.9-11.5 2-1.4.2-3.8.7-5.5 1-3.3.5-31.7 6.3-35 7.1-1.1.3-2.9.7-4 .9-6.8 1.5-41.2 11.1-53 14.9-50.7 16.1-95.7 37.5-129.7 61.7-5.3 3.8-10.2 7.4-11 8.1-.7.7-2.9 2.5-4.8 3.9-5.8 4.4-12.5 11-12.2 12.1.1.5-.1.7-.6.4-.9-.6-14.3 12.8-21.4 21.4-6.8 8.3-15.8 21.3-22.2 32.3-5.6 9.5-16 30.7-18.5 37.7-.7 1.9-1.7 4.4-2.1 5.5-2.8 6.6-10 29.4-11.5 36.5-.2.8-.9 3.7-1.5 6.5-.6 2.7-1.4 5.9-1.6 7-1.2 5.3-5.3 30.7-5.9 36.5-.4 3.6-.9 7.8-1.1 9.5-2.3 18.4-2.3 65.2.1 93 .8 9.7 1.6 18.2 2 20.5.2 1.4.7 4.4 1 6.7 2.5 20.2 7.7 47.5 15 78.3.2.8 1.8 6.7 3.5 13 1.8 6.3 3.6 12.8 4 14.5.4 1.6 2.6 8.6 4.8 15.5 16.2 50.1 38.1 95 69.1 141 5.7 8.5 10.7 15.7 11 16 .3.3 2.2 2.7 4 5.5 1.9 2.7 3.7 5.2 4.1 5.5.3.3 3.7 4.6 7.7 9.7 7.7 9.8 8.4 10.6 18.3 22.2 14.8 17.3 32.9 36.1 54.1 56.2 7.4 7 32.4 28.7 40.3 34.9 1 .8 3.3 2.7 5 4.1 7.9 6.6 44.4 33.4 49.7 36.5 1 .6 2.7 1.8 3.6 2.6 1 .8 8.6 5.8 16.8 11 12.7 8 19.8 12.4 35 21.5 1.1.7 3 1.7 4.2 2.2 1.2.6 3.9 2.1 6 3.4 22.1 13.8 85.5 43.9 122.3 58.2 5.2 2 10.4 4.1 11.5 4.5 1.1.5 10 3.8 19.9 7.3l17.8 6.4-4.8 1.2c-2.7.7-5.6 1.4-6.4 1.6-.8.2-3.3.8-5.5 1.3-2.2.6-5.8 1.3-8 1.7-2.2.3-4.7.7-5.5 1-3.2.9-22.9 3.5-32 4.1-17.3 1.3-51.4.8-62-1-2.4-.4-13.4-1.9-15.5-2.1-.5-.1-2.8-.5-5-.9s-5.1-1-6.5-1.2c-11.2-2-42-11.2-52.1-15.6-1.9-.9-5.4-2.4-7.9-3.4-20.6-8.5-51.3-27.5-69-42.8-7.1-6.2-26-25.2-29.7-29.9-2.1-2.7-4.8-6.1-6.1-7.5-1.2-1.5-3.9-5.1-5.9-8-2-2.8-3.8-5-4-4.8-.4.4 4 12.1 8.3 22.6 7.1 16.9 21.8 43 33.8 60 14.7 20.7 39.2 47.6 59.2 64.8 32.8 28.3 79.3 55.8 120.9 71.3 4.4 1.7 8.9 3.5 10 4 5.2 2.3 43.8 13.8 52 15.5 1.1.2 4.4.9 7.2 1.5 2.9.5 5.5 1 5.8 1 .2 0 1.9.4 3.6.9 1.8.5 4.8 1.2 6.8 1.5 2 .3 4.8.8 6.1 1 2.5.5 6.1 1.1 12.8 2 2 .3 5.1.7 6.7 1 6.8 1 11.3 1.6 16.5 2 3 .3 7.5.7 10 1 15 1.6 60.2 2.2 77.5 1 23-1.5 44.1-3.8 56.5-6 2.9-.5 14.3-2.4 18-3 1.4-.2 5-.9 8-1.5s6.8-1.4 8.4-1.7c5.3-.9 34.8-8.3 45.6-11.4 11.3-3.3 44.6-14.3 49.5-16.4 1.7-.7 4.6-1.8 6.5-2.5 1.9-.7 4.9-1.8 6.5-2.5 1.7-.7 7.1-3 12-5 5-2 11.3-4.7 14-5.9 2.8-1.3 7.9-3.6 11.5-5.2 7.3-3.2 36.4-17.9 44.9-22.6 3.1-1.7 7.6-4.2 10.1-5.6 2.5-1.3 5.9-3.3 7.5-4.2 3.2-1.9 3.6-2 23.5-4.5 14.6-1.8 47.8-7.2 53.3-8.6 2.1-.6 5.1-1.2 6.7-1.4 1.6-.2 3.7-.6 4.7-.9 1-.3 2.9-.7 4.3-1 1.4-.2 5.7-1.2 9.5-2.1 3.9-.9 7.7-1.8 8.6-2 6.5-1.3 38.2-10.2 51.9-14.6 81.9-26.3 158.9-64.9 231.5-116.3 9.6-6.8 31.7-23.2 35.3-26.1.9-.8 5.8-4.6 10.7-8.5 5-4 11.2-9.1 13.9-11.3 2.8-2.3 6.9-5.8 9.1-7.7 7.7-6.5 14-11.8 18-15.4 2.2-2 6.8-6 10.2-8.8 3.4-2.9 6-5.4 5.9-5.6-.2-.1-6.8 1.5-14.7 3.7-12.9 3.5-33.3 8.7-37.7 9.6-.9.2-6.9 1.5-13.2 3-6.3 1.5-12.8 2.9-14.5 3.2-1.6.2-4.6.8-6.5 1.3-1.9.5-4.8 1.2-6.5 1.4-1.6.3-3.9.8-5 1-1.1.2-4 .7-6.5 1.1-6.2 1-7.9 1.3-9.8 1.9-.9.3-3.9.7-6.6 1.1-2.7.3-8.5 1.2-13 2-7.3 1.2-13.4 2.1-20.6 2.9-1.4.2-5.4.7-9 1.1-3.6.5-7.2.9-8 1-2.7.2-16.4 1.6-20 2-1.9.2-7.8.7-13 1.1-5.2.3-11.5.8-14 .9-2.5.2-15 .7-27.9 1.1l-23.4.7 4.4-5.4c2.4-2.9 4.9-5.9 5.4-6.5.6-.6 1.9-2.3 3-3.8 1.1-1.6 2.5-3.3 3.1-4 1.3-1.5 16.4-21 18.9-24.6 1.1-1.5 6.3-8.8 11.5-16.1 5.2-7.3 9.8-13.7 10.1-14.2.7-.9 1.3-1 15.9-2.2 4.7-.4 9.9-.8 11.5-1 1.7-.1 6.2-.6 10-.9 3.9-.4 8.1-.9 9.5-1.1 1.4-.3 4.5-.7 7-1 2.5-.3 5.6-.8 7-1 1.4-.3 4.8-.7 7.6-1 2.8-.3 6.1-.8 7.5-1 2.8-.6 4.2-.9 16.9-3 5.2-.9 14.6-2.8 21-4.1 6.3-1.4 12.4-2.7 13.5-2.9 2.1-.5 12.7-3.2 24.8-6.4 27.5-7.4 54.5-17.6 80.2-30.2 21.9-10.8 28.4-14.6 48.5-28.6 9.6-6.7 30.6-26 42.2-39 40.2-44.8 74.6-110.3 95.2-181.3 2-6.9 4.1-13.9 4.6-15.5.5-1.7 1.1-4.1 1.4-5.5.3-1.4 1.7-7.5 3.1-13.5 1.4-6.1 2.8-11.7 3-12.6.2-.9.6-3.3.9-5.3.3-1.9 1-5.6 1.6-8.1 1.1-4.8 4.5-26.2 5.4-33.5.3-2.5.8-6.8 1.2-9.5.9-7 1.1-9.8 1.9-19.5.4-4.7.9-9.3 1.1-10.3.7-3.9 1.7-36.2 1.7-52.7-.1-16.4-.9-39.5-1.7-48.5-.2-2.2-.7-7.6-1-12-.4-4.4-.9-9.1-1.1-10.5-.3-2.1-1.6-13.1-2-16.5-.5-5.7-4.8-31.4-7-42.5-1.7-8.6-1.8-9.1-4-18.5-2-9-2.1-9.2-3.5-14.5-.7-2.5-1.4-5.3-1.5-6.3-2.8-14.2-20.3-65.8-29.8-88-20.7-47.8-42.7-87.2-70.5-126.1-10.2-14.2-31-41-33.6-43.1-.6-.6-2.2-2.3-3.4-4-11.4-14.7-45.2-48.4-73.8-73.5-3.4-3-4.9-5.9-11.2-21.7-23.8-60-55.4-111.8-94.7-155.3-8.5-9.4-30.6-31.2-38.5-37.9-4.1-3.5-7.7-6.7-8-7-.3-.3-4.8-4-10-8.1-45.5-36-94.5-62.8-151-82.5-17.1-5.9-50.8-15.4-64-17.9-1.4-.2-4.5-.9-7-1.5-5.1-1.1-6.3-1.3-25.7-4.7-7.9-1.3-16.9-2.6-20-2.9-3.2-.4-6.8-.8-8-1-1.2-.2-5.7-.7-10-1-4.3-.4-8.5-.9-9.4-1-5.2-1-64.2-2.7-65.2-1.9zM1883 841.7c8.1 8.9 14.7 16.6 22 25.8 3.9 4.9 7.7 9.7 8.4 10.6 4.4 5.5 19.4 27.3 25.4 37 8.2 13.3 20.3 36.5 25.1 48.4 1.8 4.4 3.7 8.8 4.3 9.9.8 1.5.1 2.7-3.9 6.9-10.3 10.7-19 19.2-27.2 26.5-11.4 10-12.9 11.2-17.6 14.7-2.2 1.7-4.2 3.3-4.5 3.6-.3.3-3.9 3-8 6.1-18.9 13.8-39.1 26.7-61.8 39.4-12.5 7-51.5 26.4-53.1 26.4-.5 0 .4-3.5 2.1-7.8 4-10.1 7.1-18.6 11.4-30.2 1.9-5.2 3.9-10.4 4.4-11.5 1.1-2.3 20.9-61.5 22-66 .5-1.7 2-7.1 3.5-12 6.8-22.7 13.9-48.5 17-61.5 3.2-13.6 7.8-32.8 8-34 .2-.8 1-4.9 1.9-9 .8-4.1 2.4-11.8 3.5-17 1.1-5.2 2.3-11.1 2.6-13 1.3-7.7 1.4-7.8 5.9-2.8 2.2 2.5 6.1 6.8 8.6 9.5zM271.8 2118.7c-.2.5-.4 16.3-.3 35.3v34.5l73.3.3 73.2.2.1 109.3c0 60 .2 111.6.4 114.4.7 11.9 6.3 27.1 13.8 37.6 5 6.9 14.6 16.3 21.1 20.5 2.3 1.5 4.3 2.9 4.6 3.2 1.2 1.3 17 8.9 23.5 11.3 8.4 3.1 20.5 6.4 26 7.2 2.2.3 4.6.8 5.3 1.1 2.2.7 11.4 1.8 16.2 1.8l4.5.1V2189H697v-71H484.6c-116.9 0-212.6.3-212.8.7zM833.8 2198.5c-.2.1-5.2.6-11.1.9-5.9.4-11.3.9-12 1.1-.7.2-3.4.6-6.2.9-6.5.7-10.8 1.4-17 2.7-2.7.6-6.1 1.3-7.5 1.5-1.4.3-6.7 1.6-11.8 3-75.9 20.4-116.8 70.9-115.6 142.7.7 44.2 15.3 77 46.4 104.1 18.8 16.3 51.4 31.1 82 37.2 1.4.3 3.2.7 4 .9.8.3 3.3.7 5.5 1 2.2.3 5.1.8 6.5 1 15.8 2.9 35.9 4.1 62 3.8 14-.1 27.3-.5 29.5-.7 2.2-.3 6.8-.8 10.3-1.1 3.5-.4 7.1-.8 8-1 .9-.1 3.7-.6 6.2-1 25.2-4.1 44.2-9.8 63.5-18.9 46.4-22 72.9-57.8 79.3-107.1.9-7 .8-34.8-.1-42-7.6-56.2-42.6-95.6-102.9-115.6-8-2.7-27.9-7.5-36.8-8.9-4.1-.7-8.2-1.4-9-1.5-.8-.2-4.9-.6-9-1s-8.8-.9-10.5-1.2c-3.2-.5-53.2-1.2-53.7-.8zm49.2 71c52.5 7.6 78.4 34.8 77.5 81.3-.3 11.1-1 16.4-3.2 24.2-5.7 20.1-19.5 35.5-40 44.5-7.5 3.4-25.8 8.1-34.8 9-3.8.4-7.9.9-9 1.1-2.7.6-34.4.5-37.5 0-1.4-.3-5-.7-8-1.1-8.8-.9-11.2-1.3-17-2.9-11.4-3-16.7-4.9-23.1-8.1-26.4-13.4-39.3-36.4-38.8-69.8.5-34.3 14.7-56.7 44-69.4 8.7-3.8 25.7-8 35.9-8.9 3.6-.4 6.7-.8 6.9-1 .6-.5 42.3.4 47.1 1.1zM1625.1 2202.1c-8.1 1.4-16.5 6.2-27.1 15.4-9.9 8.6-36.4 35.4-48.5 49-3.8 4.3-8.4 9.5-10.2 11.4-13.4 15.2-32.9 40.1-47.4 60.6-31.3 44.4-54 88.2-64.5 124.5-3.2 11-4.2 15.2-4.9 19.5-.1 1.1-.8 3.8-1.4 5.9-.6 2.2-.8 4.2-.5 4.5.3.3 21.7.6 47.5.7 46.6 0 47 0 47.4-2 .3-1.2 1.4-5.9 2.4-10.6 3-13.1 14.5-45.4 17.2-48.4.9-1 207.4-1.6 208.8-.6 1 .7 4.5 8.6 6.1 13.5.7 2.2 1.6 4.4 2 5 1.2 1.5 8.6 25.9 10.7 35l1.8 8 47.3.1h47.4l-.6-3.5c-5.2-31.5-20.5-70.2-43-108.6-11.3-19.2-37.2-57.1-47.8-70-1-1.1-4.5-5.6-8-10-3.4-4.4-6.5-8.2-6.8-8.5-.3-.3-3.2-3.7-6.4-7.5-23.6-28.2-57.8-63-73.4-74.7-9.5-7.1-15.4-9-30.2-9.4-6.9-.1-14.9.1-17.9.7zm22 89.7c9.8 10.3 23.1 25 24.8 27.5.8 1.2 1.8 2.4 2.1 2.7 3.8 2.8 36 46.2 36 48.4 0 .4-31.7.6-70.5.6h-70.6l4.2-6.3c7.2-10.7 25.1-34.7 29.4-39.3.5-.6 2.8-3.3 5-5.9 9-10.9 31.2-34.5 32.4-34.5.4 0 3.6 3 7.2 6.8zM1939 2201.7c-7.5 1.1-18.2 3.8-22.9 5.9-6 2.7-12.7 9-13.8 13.1-.9 3.5-.9 152.2 0 162.3.9 9.3 3.2 21.3 5.9 30.5 2.6 8.9 10.4 25.5 15.2 32 9.8 13.6 25.3 25.6 41.1 32 8.1 3.2 27.2 8.6 35 9.8 1.7.3 5.9 1 9.5 1.6 8.2 1.3 13.3 1.9 24 2.6 4.7.4 9.6.9 11 1.2 2.6.6 177.3 1.1 182.5.5l3-.4V2426.5l-5.5-.2c-3-.2-41.3-.4-85-.6-86.3-.4-88.5-.5-103.5-6.2-17.3-6.5-27.1-18.9-30.1-38-.4-2.8-.8-39.4-.9-81.5-.1-42.1-.5-77.6-.9-79-4-12.3-23.6-19.9-51.1-19.7-6 0-12.1.2-13.5.4zM1083 2237.5v32.4h32.3c17.7 0 45.1 0 61 .1h28.7v102.2c0 102.1 0 102.3 2.1 105.8 4.2 6.9 10.2 10.7 22.1 13.9 10 2.7 18.5 3.7 30.3 3.5 23.3-.3 38.8-4.5 46.9-12.7 6.4-6.5 6 .8 6.1-110.5 0-71.1.3-101.6 1.1-101.9.6-.2 27.9-.4 60.8-.6l59.8-.2-.1-31c0-17.1-.1-31.6-.1-32.3 0-.9-35.8-1.2-175.5-1.2H1083v32.5z"/></svg>